<svg id="visual" viewBox="0 0 900 600" width="900" height="600" xmlns="http://www.w3.org/2000/svg" xmlns:xlink="http://www.w3.org/1999/xlink" version="1.1"><rect x="0" y="0" width="900" height="600" fill="#001220"></rect><path d="M0 339L15 331C30 323 60 307 90 299.3C120 291.7 150 292.3 180 283.8C210 275.3 240 257.7 270 248.3C300 239 330 238 360 243.7C390 249.3 420 261.7 450 270.8C480 280 510 286 540 288.7C570 291.3 600 290.7 630 292.8C660 295 690 300 720 304.5C750 309 780 313 810 302.8C840 292.7 870 268.3 885 256.2L900 244L900 601L885 601C870 601 840 601 810 601C780 601 750 601 720 601C690 601 660 601 630 601C600 601 570 601 540 601C510 601 480 601 450 601C420 601 390 601 360 601C330 601 300 601 270 601C240 601 210 601 180 601C150 601 120 601 90 601C60 601 30 601 15 601L0 601Z" fill="#fa7268"></path><path d="M0 300L15 304.5C30 309 60 318 90 328.2C120 338.3 150 349.7 180 351.8C210 354 240 347 270 340.8C300 334.7 330 329.3 360 331.3C390 333.3 420 342.7 450 339.2C480 335.7 510 319.3 540 310.7C570 302 600 301 630 302C660 303 690 306 720 316.5C750 327 780 345 810 358.7C840 372.3 870 381.7 885 386.3L900 391L900 601L885 601C870 601 840 601 810 601C780 601 750 601 720 601C690 601 660 601 630 601C600 601 570 601 540 601C510 601 480 601 450 601C420 601 390 601 360 601C330 601 300 601 270 601C240 601 210 601 180 601C150 601 120 601 90 601C60 601 30 601 15 601L0 601Z" fill="#ef5f67"></path><path d="M0 411L15 413C30 415 60 419 90 419C120 419 150 415 180 407.7C210 400.3 240 389.7 270 382.2C300 374.7 330 370.3 360 372.8C390 375.3 420 384.7 450 395.8C480 407 510 420 540 420.7C570 421.3 600 409.7 630 411.3C660 413 690 428 720 423C750 418 780 393 810 381.2C840 369.3 870 370.7 885 371.3L900 372L900 601L885 601C870 601 840 601 810 601C780 601 750 601 720 601C690 601 660 601 630 601C600 601 570 601 540 601C510 601 480 601 450 601C420 601 390 601 360 601C330 601 300 601 270 601C240 601 210 601 180 601C150 601 120 601 90 601C60 601 30 601 15 601L0 601Z" fill="#e34c67"></path><path d="M0 468L15 468.5C30 469 60 470 90 473.3C120 476.7 150 482.3 180 478.3C210 474.3 240 460.7 270 456.2C300 451.7 330 456.3 360 458.2C390 460 420 459 450 454.8C480 450.7 510 443.3 540 450.2C570 457 600 478 630 478C660 478 690 457 720 453C750 449 780 462 810 469.2C840 476.3 870 477.7 885 478.3L900 479L900 601L885 601C870 601 840 601 810 601C780 601 750 601 720 601C690 601 660 601 630 601C600 601 570 601 540 601C510 601 480 601 450 601C420 601 390 601 360 601C330 601 300 601 270 601C240 601 210 601 180 601C150 601 120 601 90 601C60 601 30 601 15 601L0 601Z" fill="#d53867"></path><path d="M0 524L15 519.3C30 514.7 60 505.3 90 511.8C120 518.3 150 540.7 180 542C210 543.3 240 523.7 270 517C300 510.3 330 516.7 360 521.5C390 526.3 420 529.7 450 526.8C480 524 510 515 540 515.7C570 516.3 600 526.7 630 527.7C660 528.7 690 520.3 720 523.2C750 526 780 540 810 540.8C840 541.7 870 529.3 885 523.2L900 517L900 601L885 601C870 601 840 601 810 601C780 601 750 601 720 601C690 601 660 601 630 601C600 601 570 601 540 601C510 601 480 601 450 601C420 601 390 601 360 601C330 601 300 601 270 601C240 601 210 601 180 601C150 601 120 601 90 601C60 601 30 601 15 601L0 601Z" fill="#c62368"></path></svg>